<svg width="711" height="464" xmlns="http://www.w3.org/2000/svg" xmlns:xlink="http://www.w3.org/1999/xlink" overflow="hidden"><defs><clipPath id="clip0"><rect x="289" y="129" width="711" height="464"/></clipPath><clipPath id="clip1"><rect x="290" y="130" width="710" height="462"/></clipPath><clipPath id="clip2"><rect x="290" y="130" width="710" height="462"/></clipPath></defs><g clip-path="url(#clip0)" transform="translate(-289 -129)"><g clip-path="url(#clip1)"><g clip-path="url(#clip2)"><path d="M112.278 410.042C111.409 424.391 108.211 430.497 95.0009 430.497 85.258 430.247 88.8154 430.247 79.0725 430.287 76.6143 430.297 75.5051 429.767 75.535 427.179 75.8048 401.738 74.246 376.196 77.3637 350.905 80.9211 322.076 101.126 304.009 131.684 299.972 138.199 299.112 144.705 298.673 151.28 298.743 153.878 298.773 155.177 299.182 155.097 302.13 154.837 311.553 154.767 320.986 154.897 330.41 154.937 333.457 153.828 334.257 150.79 334.207 145.244 334.107 139.708 333.727 134.152 334.756 121.102 337.165 114.117 344.429 113.138 357.12 112.948 359.558 112.678 362.007 112.658 364.445 112.598 373.688 112.638 382.931 112.638 392.175" transform="matrix(1.00074 0 0 1 219.339 62.6336)"/><path d="M478.542 412.17C478.452 424.521 469.389 433.784 457.547 433.814 445.836 433.854 436.512 425.111 436.462 412.94 436.353 385.979 436.612 359.019 437.022 332.058 437.182 321.386 446.885 312.702 457.827 312.623 468.999 312.543 478.572 321.236 478.842 332.398 479.171 345.968 478.922 359.548 478.922 373.129" transform="matrix(1.00074 0 0 1 219.339 62.6336)"/><path d="M403.167 178.08C393.224 169.487 384.6 162.042 375.996 154.568 373.938 152.779 371.929 153.988 369.851 154.448 360.338 156.556 350.485 152.789 346.088 145.394 341.601 137.84 343.17 129.216 350.115 123.35 357.41 117.185 369.951 116.775 377.775 122.441 385.729 128.207 387.978 137.36 382.732 145.544 380.753 148.632 381.512 149.921 383.911 151.949 393.414 159.974 402.757 168.168 412.15 176.302 413.639 177.591 415.418 178.29 417.266 179.04 421.983 180.948 424.351 184.546 423.582 189.432 422.822 194.269 419.555 197.706 414.488 197.796 398.18 198.086 381.852 198.046 365.544 197.676 359.498 197.536 355.551 192.81 355.731 187.494 355.921 182.008 360.268 177.961 366.803 177.871 376.146 177.741 385.5 177.991 394.853 178.07 397.021 178.1 399.19 178.08 403.167 178.08Z" fill="#FFCA20" transform="matrix(1.00074 0 0 1 219.339 62.6336)"/><path d="M511.608 178.94C524.059 178.94 535.79 178.91 547.512 178.95 555.156 178.97 560.053 182.947 559.973 188.943 559.903 194.728 555.156 198.745 547.841 198.675 532.722 198.526 517.603 199.185 502.484 198.276 496.898 197.936 493.381 195.538 492.222 190.531 491.043 185.445 493.491 181.738 498.377 179.559 500.226 178.74 501.735 177.611 503.154 176.262 512.008 167.838 520.821 159.374 529.795 151.07 532.053 148.982 532.752 147.343 531.483 144.285 527.926 135.671 530.984 127.457 538.938 122.611 547.082 117.654 559.073 118.704 566.068 124.979 572.334 130.595 573.703 139.029 569.516 146.234 565.179 153.698 554.527 158.685 546.013 155.237 538.808 152.319 535.361 155.047 531.124 159.374 525.168 165.46 518.803 171.175 512.627 177.071 512.387 177.311 512.287 177.691 511.608 178.94Z" fill="#FFCA20" transform="matrix(1.00074 0 0 1 219.339 62.6336)"/><path d="M484.887 176.721C484.787 190.212 472.127 201.244 456.758 201.244 441.559 201.244 428.678 189.972 428.608 176.612 428.538 163.081 441.898 151.45 457.147 151.78 472.686 152.109 484.987 163.171 484.887 176.721Z" fill="#FFCA20" transform="matrix(1.00074 0 0 1 219.339 62.6336)"/><path d="M326.652 416.347C337.065 427.389 341.232 430.197 350.515 432.505 377.745 439.27 402.227 427.959 414.189 403.187 419.405 392.375 421.333 380.923 422.103 369.201 421.823 364.365 421.873 359.518 422.033 354.692 422.543 339.803 417.506 326.672 408.243 314.891 404.556 310.204 400.359 305.937 393.714 305.058 376.326 296.874 358.119 294.566 339.243 298.923 316.869 304.079 297.713 313.492 292.427 337.315 291.108 343.24 290.998 349.216 290.978 355.282 290.908 375.087 290.709 394.903 290.549 414.708 290.379 435.453 290.229 456.198 289.959 476.943 289.929 479.441 290.728 480.211 293.327 480.121 298.493 479.951 303.679 480.241 308.845 480.031 318.698 479.621 325.753 472.496 325.833 463.043M380.823 389.397C376.316 399.409 367.952 404.885 356.071 404.746 343.78 404.596 335.626 398.64 330.569 388.387 327.132 381.393 326.842 373.848 326.482 366.653 326.962 358.459 327.162 350.565 330.39 343.08 334.896 332.618 343 326.672 354.852 326.333 366.553 326.003 375.867 330.709 380.623 341.182 387.878 357.12 388.008 373.438 380.823 389.397Z" transform="matrix(1.00074 0 0 1 219.339 62.6336)"/><path d="M624.576 278.078C624.586 270.064 617.781 263.398 609.307 262.469 604.19 261.909 598.974 262.309 593.818 261.979 590.011 261.74 588.632 262.799 588.762 266.666 589.081 276.089 588.862 285.532 588.862 294.975 588.862 302.12 588.862 308.266 588.862 315.421 579.418 304.458 570.995 299.582 554.167 298.093 542.925 297.094 532.493 299.522 522.64 304.568 517.663 307.147 518.093 307.966 516.045 309.675 509.09 315.451 504.553 322.595 500.516 330.46 495.43 340.382 493.591 349.426 493.471 360.148 492.841 370.171 493.301 380.183 495.569 389.976 500.176 409.822 509.799 425.85 532.143 432.026 546.602 436.023 561.272 436.842 575.741 433.405 607.658 425.8 622.527 413.759 623.696 381.662 624.965 347.157 624.546 312.603 624.576 278.078ZM584.425 389.676C580.188 399.939 572.404 405.925 560.642 406.394 548.891 406.854 539.508 402.477 534.621 392.045 527.196 376.196 526.717 359.858 533.872 343.86 538.618 333.248 547.422 327.502 560.152 328.101 571.984 328.661 580.688 334.766 585.094 345.908 587.633 352.334 588.342 359.059 588.552 366.064 588.212 373.958 587.583 382.022 584.425 389.676Z" transform="matrix(1.00074 0 0 1 219.339 62.6336)"/><path d="M279.257 334.427C279.247 318.129 271.113 306.647 254.955 301.221 236.918 295.165 218.271 294.316 199.735 298.283 182.877 301.9 171.046 311.513 166.109 327.811 164.98 331.559 165.55 333.228 170.286 332.928 176.631 332.528 183.017 332.858 189.382 332.818 195.168 332.788 201.354 334.107 205.021 327.732 205.73 326.492 207.959 325.823 209.627 325.343 219.31 322.555 228.873 323.355 238.277 326.602 241.964 327.881 244.042 330.54 244.532 334.207 245.032 338.014 243.083 340.782 239.905 342.771 235.339 345.629 230.113 346.718 224.796 347.617 214.064 349.426 203.022 349.716 192.61 353.143 182.187 356.581 172.015 360.558 166.209 370.271 150.331 396.831 166.479 428.109 198.166 432.655 209.348 434.264 220.45 433.415 231.462 432.116 256.583 429.158 274.88 415.977 277.538 394.273 279.267 380.103 278.877 369.461 279.267 359.279 279.257 349.516 279.257 341.971 279.257 334.427ZM244.812 375.087C244.742 395.942 232.111 407.783 211.386 406.424 202.613 405.845 196.977 401.478 195.748 394.303 194.309 385.909 197.966 379.254 205.8 375.897 211.456 373.468 217.602 372.789 223.537 371.37 227.574 370.411 231.631 369.501 235.589 368.322 244.862 365.544 244.842 365.484 244.812 375.087Z" transform="matrix(1.00074 0 0 1 219.339 62.6336)"/><path d="M522.65 304.548C504.243 317.139 496.059 334.866 494.101 355.711 493.961 357.2 493.681 358.669 493.471 360.138 493.501 350.905 493.571 341.691 493.551 332.468 493.501 311.683 481.909 300.771 459.955 299.862 447.554 299.342 436.602 301.291 428.738 311.304 424.451 316.76 422.393 322.875 422.403 329.74 422.423 342.911 422.223 356.091 422.113 369.231 421.803 357.03 421.473 344.919 416.877 333.248 412.24 321.476 405.405 311.533 393.724 305.068 393.863 284.123 394.023 263.179 394.123 242.234 394.213 224.277 408.073 210.577 427.019 210.387 447.914 210.187 468.819 210.257 489.714 210.547 509.13 210.817 523.159 225.146 522.9 243.413 522.6 263.788 522.72 284.173 522.65 304.548Z" fill="#FFCA20" transform="matrix(1.00074 0 0 1 219.339 62.6336)"/><path d="M760.806 351.794C756.49 319.168 733.946 299.552 699.401 298.683 669.833 297.933 647.969 310.924 639.165 334.906 635.358 345.269 633.369 356.041 633.869 366.154 633.869 368.612 633.789 370.131 633.879 371.63 634.808 386.819 636.827 401.948 646.939 414.369 662.208 433.115 683.792 437.772 707.215 435.493 734.336 432.855 751.173 418.006 758.408 393.254 762.395 379.624 762.665 365.794 760.806 351.794ZM726.072 365.454C726.112 374.448 725.172 382.322 722.334 389.836 716.119 406.284 699.211 412.48 683.932 404.166 678.616 401.278 675.369 396.851 673.56 391.525 668.953 377.985 668.024 364.145 671.212 350.255 674.569 335.636 684.832 327.772 699.161 328.101 711.582 328.391 721.885 337.894 724.713 351.844 725.692 356.661 726.461 361.527 726.072 365.454Z" transform="matrix(1.00074 0 0 1 219.339 62.6336)"/><path d="M436.442 446.125 448.154 446.125C453.49 446.125 457.367 446.885 459.775 448.414 462.184 449.933 463.393 452.361 463.393 455.678 463.393 457.937 462.863 459.785 461.814 461.224 460.765 462.663 459.356 463.543 457.607 463.833L457.607 464.092C459.995 464.622 461.714 465.621 462.763 467.09 463.823 468.549 464.342 470.498 464.342 472.926 464.342 476.363 463.103 479.051 460.625 480.98 458.147 482.909 454.779 483.868 450.522 483.868L436.442 483.868 436.442 446.125ZM444.417 461.065 449.053 461.065C451.212 461.065 452.781 460.735 453.75 460.055 454.719 459.386 455.209 458.277 455.209 456.728 455.209 455.279 454.679 454.25 453.63 453.62 452.571 452.99 450.902 452.681 448.624 452.681L444.427 452.681 444.427 461.065ZM444.417 467.41 444.417 477.243 449.613 477.243C451.811 477.243 453.43 476.823 454.479 475.974 455.529 475.134 456.048 473.845 456.048 472.107 456.048 468.979 453.82 467.41 449.353 467.41L444.417 467.41Z" transform="matrix(1.00074 0 0 1 219.339 62.6336)"/><path d="M482.399 483.848 482.399 446.115 490.383 446.115 490.383 483.848 482.399 483.848Z" transform="matrix(1.00074 0 0 1 219.339 62.6336)"/><path d="M540.667 483.848 531.603 483.848 521.74 467.95 518.373 470.378 518.373 483.848 510.389 483.848 510.389 446.115 518.373 446.115 518.373 463.383 521.511 458.946 531.703 446.125 540.557 446.125 527.426 462.823 540.667 483.848Z" transform="matrix(1.00074 0 0 1 219.339 62.6336)"/><path d="M577.62 483.848 555.945 483.848 555.945 446.115 577.62 446.115 577.62 452.671 563.93 452.671 563.93 460.955 576.67 460.955 576.67 467.51 563.93 467.51 563.93 477.243 577.62 477.243 577.62 483.848Z" transform="matrix(1.00074 0 0 1 219.339 62.6336)"/><path d="M634.768 483.848 626.784 483.848 626.784 452.781 616.561 452.781 616.561 446.125 644.981 446.125 644.981 452.781 634.758 452.781 634.758 483.848Z" transform="matrix(1.00074 0 0 1 219.339 62.6336)"/><path d="M684.352 483.848 681.624 474.865 667.904 474.865 665.176 483.848 656.582 483.848 669.863 445.966 679.616 445.966 692.946 483.848 684.352 483.848ZM679.725 468.159C677.207 460.025 675.778 455.419 675.469 454.349 675.159 453.28 674.919 452.441 674.789 451.821 674.219 454.02 672.601 459.466 669.923 468.159L679.725 468.159Z" transform="matrix(1.00074 0 0 1 219.339 62.6336)"/><path d="M738.653 483.848 729.539 483.848 720.786 469.578 712.032 483.848 703.488 483.848 715.969 464.392 704.288 446.125 713.091 446.125 721.195 459.696 729.15 446.125 737.743 446.125 725.932 464.832 738.653 483.848Z" transform="matrix(1.00074 0 0 1 219.339 62.6336)"/><path d="M753.931 483.848 753.931 446.115 761.916 446.115 761.916 483.848 753.931 483.848Z" transform="matrix(1.00074 0 0 1 219.339 62.6336)"/></g></g></g></svg>