<svg width="342" height="83" xmlns="http://www.w3.org/2000/svg" xmlns:xlink="http://www.w3.org/1999/xlink" overflow="hidden"><defs><filter id="fx0" x="-10%" y="-10%" width="120%" height="120%" filterUnits="userSpaceOnUse" primitiveUnits="userSpaceOnUse"><feComponentTransfer color-interpolation-filters="sRGB"><feFuncR type="discrete" tableValues="0 0"/><feFuncG type="discrete" tableValues="0 0"/><feFuncB type="discrete" tableValues="0 0"/><feFuncA type="linear" slope="0.631373" intercept="0"/></feComponentTransfer><feGaussianBlur stdDeviation="2 2"/></filter><clipPath id="clip1"><rect x="404" y="286" width="342" height="83"/></clipPath><clipPath id="clip2"><rect x="-2" y="-2" width="346" height="86"/></clipPath><clipPath id="clip3"><rect x="0" y="0" width="343" height="83"/></clipPath><linearGradient x1="574.5" y1="291" x2="574.5" y2="360" gradientUnits="userSpaceOnUse" spreadMethod="reflect" id="fill4"><stop offset="0" stop-color="#FFC746"/><stop offset="0.5" stop-color="#FFC600"/><stop offset="1" stop-color="#E5B600"/></linearGradient></defs><g clip-path="url(#clip1)" transform="translate(-404 -286)"><g clip-path="url(#clip2)" filter="url(#fx0)" transform="translate(403 286)"><g clip-path="url(#clip3)"><path d="M54.3418 7 289.606 7C320.423 7 336 22.4451 336 41.5 336 60.5549 320.423 76 289.606 76L54.3418 76C23.5247 76 7 61.4429 7 42.3881 7 23.3332 23.5247 7 54.3418 7Z" fill="#FF0000" fill-rule="evenodd"/></g></g><path d="M457.342 291 692.606 291C723.423 291 739 306.445 739 325.5 739 344.555 723.423 360 692.606 360L457.342 360C426.525 360 410 345.443 410 326.388 410 307.333 426.525 291 457.342 291Z" fill="url(#fill4)" fill-rule="evenodd"/><text font-family="Arial Rounded MT Bold,Arial Rounded MT Bold_MSFontService,sans-serif" font-weight="700" font-size="33" transform="translate(439.647 337)">Read more here</text></g></svg>